<svg width="19" height="31" viewBox="0 0 19 31" fill="none" xmlns="http://www.w3.org/2000/svg">
<path d="M2.60059 25H10.8477V24.8242C9.58789 24.4287 8.79688 24.0479 8.48926 23.6816C8.18164 23.3154 8.02051 22.4805 8.02051 21.1768V7.40723C8.02051 6.10352 8.16699 5.26855 8.47461 4.90234C8.78223 4.53613 9.55859 4.15527 10.8184 3.75977V3.58398H2.57129V3.75977C3.8457 4.15527 4.63672 4.53613 4.92969 4.90234C5.22266 5.26855 5.36914 6.10352 5.36914 7.40723V21.1768C5.36914 22.4805 5.22266 23.3154 4.92969 23.6816C4.63672 24.0479 3.8457 24.4287 2.57129 24.8242L2.60059 25Z" fill="black"/>
<line x1="6.35496e-08" y1="1.25" x2="13" y2="1.25" stroke="black" stroke-width="1.5"/>
<line x1="6.35496e-08" y1="28.25" x2="13" y2="28.25" stroke="black" stroke-width="1.5"/>
</svg>
