<svg width="22" height="29" viewBox="0 0 22 29" fill="none" xmlns="http://www.w3.org/2000/svg">
<path d="M2.66113 25H10.9082V24.8242C9.64844 24.4287 8.85742 24.0479 8.5498 23.6816C8.24219 23.3154 8.08105 22.4805 8.08105 21.1768V7.40723C8.08105 6.10352 8.22754 5.26855 8.53516 4.90234C8.84277 4.53613 9.61914 4.15527 10.8789 3.75977V3.58398H2.63184V3.75977C3.90625 4.15527 4.69727 4.53613 4.99023 4.90234C5.2832 5.26855 5.42969 6.10352 5.42969 7.40723V21.1768C5.42969 22.4805 5.2832 23.3154 4.99023 23.6816C4.69727 24.0479 3.90625 24.4287 2.63184 24.8242L2.66113 25ZM10.8654 25H19.1125V24.8242C17.8527 24.4287 17.0617 24.0479 16.7541 23.6816C16.4465 23.3154 16.2854 22.4805 16.2854 21.1768V7.40723C16.2854 6.10352 16.4318 5.26855 16.7395 4.90234C17.0471 4.53613 17.8234 4.15527 19.0832 3.75977V3.58398H10.8361V3.75977C12.1105 4.15527 12.9016 4.53613 13.1945 4.90234C13.4875 5.26855 13.634 6.10352 13.634 7.40723V21.1768C13.634 22.4805 13.4875 23.3154 13.1945 23.6816C12.9016 24.0479 12.1105 24.4287 10.8361 24.8242L10.8654 25Z" fill="black"/>
<line y1="1.31647" x2="21.6364" y2="1.31647" stroke="black" stroke-width="1.5"/>
<line y1="28.25" x2="21.6364" y2="28.25" stroke="black" stroke-width="1.5"/>
</svg>
