<svg width="35" height="31" viewBox="0 0 35 31" fill="none" xmlns="http://www.w3.org/2000/svg">
<path d="M4.60059 25H12.8477V24.8242C11.5879 24.4287 10.7969 24.0479 10.4893 23.6816C10.1816 23.3154 10.0205 22.4805 10.0205 21.1768V7.40723C10.0205 6.10352 10.167 5.26855 10.4746 4.90234C10.7822 4.53613 11.5586 4.15527 12.8184 3.75977V3.58398H4.57129V3.75977C5.8457 4.15527 6.63672 4.53613 6.92969 4.90234C7.22266 5.26855 7.36914 6.10352 7.36914 7.40723V21.1768C7.36914 22.4805 7.22266 23.3154 6.92969 23.6816C6.63672 24.0479 5.8457 24.4287 4.57129 24.8242L4.60059 25ZM12.8049 25H21.052V24.8242C19.7922 24.4287 19.0012 24.0479 18.6936 23.6816C18.3859 23.3154 18.2248 22.4805 18.2248 21.1768V7.40723C18.2248 6.10352 18.3713 5.26855 18.6789 4.90234C18.9865 4.53613 19.7629 4.15527 21.0227 3.75977V3.58398H12.7756V3.75977C14.05 4.15527 14.841 4.53613 15.134 4.90234C15.427 5.26855 15.5734 6.10352 15.5734 7.40723V21.1768C15.5734 22.4805 15.427 23.3154 15.134 23.6816C14.841 24.0479 14.05 24.4287 12.7756 24.8242L12.8049 25ZM21.0092 25H29.2563V24.8242C27.9965 24.4287 27.2055 24.0479 26.8979 23.6816C26.5902 23.3154 26.4291 22.4805 26.4291 21.1768V7.40723C26.4291 6.10352 26.5756 5.26855 26.8832 4.90234C27.1908 4.53613 27.9672 4.15527 29.227 3.75977V3.58398H20.9799V3.75977C22.2543 4.15527 23.0453 4.53613 23.3383 4.90234C23.6313 5.26855 23.7777 6.10352 23.7777 7.40723V21.1768C23.7777 22.4805 23.6313 23.3154 23.3383 23.6816C23.0453 24.0479 22.2543 24.4287 20.9799 24.8242L21.0092 25Z" fill="black"/>
<line y1="1.25" x2="32" y2="1.25" stroke="black" stroke-width="1.5"/>
<line y1="28.25" x2="32" y2="28.25" stroke="black" stroke-width="1.5"/>
</svg>
